<?xml version="1.0" encoding="UTF-8"?>
<svg version="1.1" xmlns="http://www.w3.org/2000/svg" width="500" height="500">
<path d="M0 0 C3.17283366 1.40120246 5.29168993 3.05145758 7.72363281 5.51245117 C8.79559906 6.58948555 8.79559906 6.58948555 9.88922119 7.6882782 C10.65280945 8.46532608 11.41639771 9.24237396 12.203125 10.04296875 C12.99974548 10.8447908 13.79636597 11.64661285 14.61712646 12.47273254 C17.1662075 15.03962418 19.7085286 17.61307558 22.25 20.1875 C24.77799819 22.74324392 27.30747833 25.2974739 29.84002686 27.84870911 C31.41452445 29.4353202 32.98634314 31.02459594 34.55499268 32.61698914 C35.28224548 33.35077286 36.00949829 34.08455658 36.75878906 34.84057617 C37.69999603 35.79416267 37.69999603 35.79416267 38.66021729 36.76701355 C40.60893627 38.62678586 42.59271634 40.3822023 44.63458252 42.13656616 C49.67815143 46.52451647 54.37191881 51.23968548 59.08789062 55.97436523 C60.07406467 56.96082199 61.06046023 57.94705735 62.04705811 58.93309021 C64.70163506 61.58738244 67.35313623 64.24472745 70.00406075 66.90266681 C72.78357428 69.68846834 75.56595532 72.471403 78.34802246 75.25465393 C83.60549768 80.51522649 88.86042046 85.77834099 94.11441183 91.04239279 C100.10040126 97.03959314 106.08925983 103.03392488 112.07835102 109.02802742 C124.38874354 121.34884814 136.69556092 133.67323381 149 146 C145.15447933 150.59619463 141.17392606 154.96962672 136.92556763 159.19468689 C136.05420648 160.06732967 136.05420648 160.06732967 135.16524208 160.95760161 C133.23768606 162.88679154 131.30660234 164.81240929 129.37548828 166.73803711 C127.98524345 168.12799959 126.59521934 169.51818285 125.20539856 170.90856934 C121.44571257 174.66854143 117.68295825 178.42542914 113.91963434 182.1817596 C109.98205333 186.11307606 106.04731677 190.04723738 102.11227417 193.98109436 C94.66650046 201.4237639 87.21818198 208.86388131 79.76893985 216.30307919 C71.28572614 224.77510339 62.80536239 233.24997791 54.3252337 241.72508991 C36.88665251 259.1532274 19.44450557 276.5777926 2 294 C-1.10550308 292.51558828 -3.23356746 291.01111683 -5.66699219 288.56005859 C-6.36741638 287.85948334 -7.06784058 287.15890808 -7.78948975 286.43710327 C-8.53442688 285.68184357 -9.27936401 284.92658386 -10.046875 284.1484375 C-10.81807678 283.37440582 -11.58927856 282.60037415 -12.3838501 281.80288696 C-14.84396856 279.33158077 -17.29703848 276.85340817 -19.75 274.375 C-21.41750894 272.69745948 -23.08547232 271.02037055 -24.75390625 269.34375 C-28.8412237 265.23439081 -32.92277696 261.11937353 -37 257 C-35.49191128 253.46668244 -33.4443918 251.19747834 -30.73532104 248.49481201 C-29.84067139 247.59741302 -28.94602173 246.70001404 -28.02426147 245.77542114 C-27.03042687 244.78866426 -26.03649666 243.80200366 -25.04248047 242.81542969 C-23.99743417 241.77094764 -22.95282829 240.72602478 -21.90863037 239.68069458 C-19.07445727 236.84594754 -16.23415901 234.01741025 -13.39272833 231.18994045 C-10.42362069 228.23333334 -7.46017396 225.27106341 -4.49612427 222.30938721 C1.11678277 216.70269692 6.7347687 211.10112448 12.35459316 205.50136876 C18.75265569 199.12565912 25.14504171 192.74427112 31.53695512 186.36239767 C44.68499314 173.23526608 57.84014971 160.11528931 71 147 C65.97936067 140.93616336 60.5306721 135.39564493 54.95556641 129.84204102 C53.94955304 128.83631022 52.9437608 127.83035819 51.93817139 126.82420349 C49.22597093 124.11171778 46.51071267 121.40231227 43.79486895 118.69347501 C40.95034242 115.85522729 38.10867395 113.01412092 35.26669312 110.17332458 C29.89275488 104.80248636 24.51627409 99.43420095 19.13886106 94.06684202 C13.01351638 87.95269989 6.891033 81.83569596 0.76878095 75.71845734 C-11.81764547 63.14246519 -24.40763676 50.57004745 -37 38 C-30.7623583 30.63524112 -30.7623583 30.63524112 -27.47314453 27.35961914 C-26.85295441 26.73950455 -26.23276428 26.11938995 -25.59378052 25.48048401 C-24.94666107 24.83852585 -24.29954163 24.19656769 -23.6328125 23.53515625 C-22.95322479 22.85698349 -22.27363708 22.17881073 -21.57345581 21.48008728 C-19.42632998 19.33850859 -17.27573373 17.20045471 -15.125 15.0625 C-13.65862227 13.60114411 -12.1924742 12.13955774 -10.7265625 10.67773438 C-7.15369 7.11582065 -3.57770316 3.55706135 0 0 Z " fill="#0CC0DF" transform="translate(150,103)"/>
<path d="M0 0 C2.78139134 1.34059035 4.80331915 2.56659347 6.953125 4.79296875 C7.49066406 5.34146484 8.02820313 5.88996094 8.58203125 6.45507812 C9.40767578 7.31262695 9.40767578 7.31262695 10.25 8.1875 C13.5419631 11.58655106 16.83363279 14.89851153 20.44958496 17.95497131 C26.33587338 23.08058576 31.78420221 28.65272939 37.29101562 34.17749023 C38.51363996 35.4003971 39.73648543 36.6230829 40.95953369 37.8455658 C44.25871759 41.14446428 47.55482192 44.44642393 50.85035896 47.74896502 C54.30253173 51.20741397 57.75756057 54.66300733 61.21228027 58.11891174 C67.7447281 64.65446035 74.27462389 71.19255257 80.80359411 77.73157507 C88.24058929 85.17977039 95.68044412 92.62510648 103.12053394 100.07021034 C118.41686091 115.3769733 133.70961455 130.68730202 149 146 C145.15447933 150.59619463 141.17392606 154.96962672 136.92556763 159.19468689 C136.05420648 160.06732967 136.05420648 160.06732967 135.16524208 160.95760161 C133.23768606 162.88679154 131.30660234 164.81240929 129.37548828 166.73803711 C127.98524345 168.12799959 126.59521934 169.51818285 125.20539856 170.90856934 C121.44571257 174.66854143 117.68295825 178.42542914 113.91963434 182.1817596 C109.98205333 186.11307606 106.04731677 190.04723738 102.11227417 193.98109436 C94.66650046 201.4237639 87.21818198 208.86388131 79.76893985 216.30307919 C71.28572614 224.77510339 62.80536239 233.24997791 54.3252337 241.72508991 C36.88665251 259.1532274 19.44450557 276.5777926 2 294 C-1.10550308 292.51558828 -3.23356746 291.01111683 -5.66699219 288.56005859 C-6.36741638 287.85948334 -7.06784058 287.15890808 -7.78948975 286.43710327 C-8.53442688 285.68184357 -9.27936401 284.92658386 -10.046875 284.1484375 C-10.81807678 283.37440582 -11.58927856 282.60037415 -12.3838501 281.80288696 C-14.84396856 279.33158077 -17.29703848 276.85340817 -19.75 274.375 C-21.41750894 272.69745948 -23.08547232 271.02037055 -24.75390625 269.34375 C-28.84122472 265.23438978 -32.92237281 261.11897411 -37 257 C-31.97936067 250.93616336 -26.5306721 245.39564493 -20.95556641 239.84204102 C-19.94955304 238.83631022 -18.9437608 237.83035819 -17.93817139 236.82420349 C-15.22597093 234.11171778 -12.51071267 231.40231227 -9.79486895 228.69347501 C-6.95034242 225.85522729 -4.10867395 223.01412092 -1.26669312 220.17332458 C4.10724512 214.80248636 9.48372591 209.43420095 14.86113894 204.06684202 C20.98648362 197.95269989 27.108967 191.83569596 33.23121905 185.71845734 C45.81764547 173.14246519 58.40763676 160.57004745 71 148 C69.49191128 144.46668244 67.4443918 142.19747834 64.73532104 139.49481201 C63.84067139 138.59741302 62.94602173 137.70001404 62.02426147 136.77542114 C61.03042687 135.78866426 60.03649666 134.80200366 59.04248047 133.81542969 C57.99743417 132.77094764 56.95282829 131.72602478 55.90863037 130.68069458 C53.07445727 127.84594754 50.23415901 125.01741025 47.39272833 122.18994045 C44.42362069 119.23333334 41.46017396 116.27106341 38.49612427 113.30938721 C32.88321723 107.70269692 27.2652313 102.10112448 21.64540684 96.50136876 C15.24734431 90.12565912 8.85495829 83.74427112 2.46304488 77.36239767 C-10.68499314 64.23526608 -23.84014971 51.11528931 -37 38 C-30.7623583 30.63524112 -30.7623583 30.63524112 -27.47314453 27.35961914 C-26.85295441 26.73950455 -26.23276428 26.11938995 -25.59378052 25.48048401 C-24.94666107 24.83852585 -24.29954163 24.19656769 -23.6328125 23.53515625 C-22.95322479 22.85698349 -22.27363708 22.17881073 -21.57345581 21.48008728 C-19.42632998 19.33850859 -17.27573373 17.20045471 -15.125 15.0625 C-13.65862227 13.60114411 -12.1924742 12.13955774 -10.7265625 10.67773438 C-7.15369 7.11582065 -3.57770316 3.55706135 0 0 Z " fill="#0CC0DF" transform="translate(265,103)"/>
<path d="M0 0 C0.84095215 0.21108398 1.6819043 0.42216797 2.54833984 0.63964844 C22.34892866 5.73403184 41.71220341 14.0706731 59 25 C60.00546875 25.63292969 61.0109375 26.26585937 62.046875 26.91796875 C74.31455097 34.87924551 85.44586319 43.89762215 96 54 C96.55300781 54.52045898 97.10601562 55.04091797 97.67578125 55.57714844 C107.23769607 64.60484793 115.35563852 74.30899099 123 85 C123.45358887 85.63019043 123.90717773 86.26038086 124.37451172 86.90966797 C156.4790203 131.94698865 168.77131645 189.80933827 160.50683594 244.24853516 C154.400729 280.48647748 140.74786746 314.89904286 118 344 C117.20851563 345.01449219 116.41703125 346.02898437 115.6015625 347.07421875 C102.74048361 363.05672305 87.76954624 377.21787746 71 389 C70.36642578 389.45165527 69.73285156 389.90331055 69.08007812 390.36865234 C48.0087171 405.30607659 24.70284509 414.80916457 0 422 C-1.04027344 422.30679687 -2.08054687 422.61359375 -3.15234375 422.9296875 C-54.98416699 437.03259593 -114.67935239 427.77241304 -161.29492188 401.71728516 C-171.00963971 396.10968471 -180.2529494 390.03146886 -189 383 C-189.97453125 382.22914063 -190.9490625 381.45828125 -191.953125 380.6640625 C-213.81249646 363.00560983 -231.03598663 342.26930866 -245 318 C-245.36432129 317.3797998 -245.72864258 316.75959961 -246.10400391 316.12060547 C-275.19969823 266.32614409 -278.80466306 205.72985063 -264.69140625 150.796875 C-249.77772437 95.99124924 -211.33952677 49.72680687 -162.75732422 21.2512207 C-113.3040829 -6.94097749 -54.93765043 -14.0027494 0 0 Z M-202.52539062 57.57226562 C-203.9592092 58.96050586 -205.40909281 60.3320932 -206.859375 61.703125 C-246.89783172 100.38434589 -267.29265448 156.03710404 -268.25 211 C-267.2904641 266.08864903 -246.9543051 318.7806967 -208.44384766 358.50927734 C-207.04878934 359.9496267 -205.67053922 361.40619733 -204.29296875 362.86328125 C-166.69808747 401.77921253 -111.69321412 423.00257133 -58.12011719 424.28320312 C-0.13868528 424.90200176 54.25604869 401.7233523 95.69555664 361.59179688 C103.16241184 354.22225739 109.82440823 346.47457051 116 338 C116.39912598 337.45633789 116.79825195 336.91267578 117.20947266 336.35253906 C150.52263615 290.64473748 163.7759268 233.70997223 155.54345703 177.90527344 C150.4934065 147.10045034 139.35694154 116.45404905 121 91 C120.28585937 89.99710937 119.57171875 88.99421875 118.8359375 87.9609375 C105.51472376 69.74429539 90.26527098 53.31920402 72 40 C70.95457031 39.23300781 69.90914063 38.46601562 68.83203125 37.67578125 C-8.46226639 -17.34239582 -115.25385162 -14.89400522 -202.52539062 57.57226562 Z " fill="#0CC0DF" transform="translate(305,39)"/>
</svg>
